<?xml version="1.0" encoding="utf-8"?>
<!-- Generator: Adobe Illustrator 24.3.0, SVG Export Plug-In . SVG Version: 6.00 Build 0)  -->
<svg version="1.1" id="Layer_1" xmlns="http://www.w3.org/2000/svg" xmlns:xlink="http://www.w3.org/1999/xlink" x="0px" y="0px"
	 viewBox="0 0 199.6 199.7" style="enable-background:new 0 0 199.6 199.7;" xml:space="preserve">
<style type="text/css">
	.st0{fill:#DADADA;}
</style>
<g>
	<path class="st0" d="M148.7,105.5c0.2,27.1,23.8,36.1,24.1,36.3c-0.2,0.6-3.8,12.9-12.4,25.5c-7.5,10.9-15.2,21.8-27.4,22
		c-12,0.2-15.8-7.1-29.6-7.1s-18,6.9-29.4,7.4c-11.8,0.5-20.8-11.8-28.3-22.7c-15.4-22.2-27.1-62.9-11.3-90.3
		C42.2,62.8,56.3,54.2,71.5,54c11.6-0.2,22.5,7.8,29.6,7.8c7.1,0,20.4-9.6,34.3-8.2c5.9,0.2,22.2,2.3,32.8,17.8
		C167.2,71.9,148.5,82.8,148.7,105.5 M126.1,38.9c6.3-7.6,10.5-18.1,9.3-28.6c-9,0.3-20,6-26.4,13.6c-5.8,6.7-10.9,17.4-9.5,27.7
		C109.6,52.3,119.9,46.5,126.1,38.9"/>
</g>
</svg>
