<?xml version="1.0" encoding="utf-8"?>
<!-- Generator: Adobe Illustrator 24.3.0, SVG Export Plug-In . SVG Version: 6.00 Build 0)  -->
<svg version="1.1" id="Layer_1" xmlns="http://www.w3.org/2000/svg" xmlns:xlink="http://www.w3.org/1999/xlink" x="0px" y="0px"
	 viewBox="0 0 199.6 199.7" style="enable-background:new 0 0 199.6 199.7;" xml:space="preserve">
<path d="M166.8,55.2h-22.3c0-24.7-20-44.7-44.7-44.7s-44.7,20-44.7,44.7H32.8c-12.3,0-22.3,10-22.3,22.3V152
	c0,20.5,16.7,37.2,37.2,37.2h104.2c20.5,0,37.2-16.7,37.2-37.2V77.5C189.2,65.2,179.2,55.2,166.8,55.2z M99.8,25.4
	c16.4,0,29.8,13.3,29.8,29.8H70C70,38.7,83.4,25.4,99.8,25.4z M174.3,152c0,12.3-10,22.3-22.3,22.3H47.7c-12.3,0-22.3-10-22.3-22.3
	V77.5c0-4.1,3.3-7.4,7.4-7.4h22.3V85c0,4.1,3.3,7.4,7.4,7.4S70,89.1,70,85V70.1h59.6V85c0,4.1,3.3,7.4,7.4,7.4
	c4.1,0,7.4-3.3,7.4-7.4V70.1h22.3c4.1,0,7.4,3.3,7.4,7.4V152z"/>
</svg>
