<?xml version="1.0" encoding="utf-8"?>
<!-- Generator: Adobe Illustrator 24.3.0, SVG Export Plug-In . SVG Version: 6.00 Build 0)  -->
<svg version="1.1" id="Layer_1" xmlns="http://www.w3.org/2000/svg" xmlns:xlink="http://www.w3.org/1999/xlink" x="0px" y="0px"
	 viewBox="0 0 199.6 199.7" style="enable-background:new 0 0 199.6 199.7;" xml:space="preserve">
<style type="text/css">
	.st0{fill:#DADADA;}
</style>
<path d="M78.6,8.2C40.3,8.2,9.2,39.4,9.2,77.7s31.2,69.5,69.5,69.5c13.8,0,26.7-4.1,37.5-11.1l44.9,44.9c5.8,5.8,15.2,5.8,20.9,0
	c5.8-5.8,5.8-15.2,0-20.9L137,115.2c7-10.8,11.1-23.7,11.1-37.5C148.1,39.4,116.9,8.2,78.6,8.2z M78.6,26.2
	c28.4,0,51.6,23.1,51.6,51.6s-23.1,51.6-51.6,51.6s-51.6-23.1-51.6-51.6S50.2,26.2,78.6,26.2z"/>
<path d="M166.8,55.2h-22.3c0-24.7-20-44.7-44.7-44.7s-44.7,20-44.7,44.7H32.8c-12.3,0-22.3,10-22.3,22.3V152
	c0,20.5,16.7,37.2,37.2,37.2h104.2c20.5,0,37.2-16.7,37.2-37.2V77.5C189.2,65.2,179.2,55.2,166.8,55.2z M99.8,25.4
	c16.4,0,29.8,13.3,29.8,29.8H70C70,38.7,83.4,25.4,99.8,25.4z M174.3,152c0,12.3-10,22.3-22.3,22.3H47.7c-12.3,0-22.3-10-22.3-22.3
	V77.5c0-4.1,3.3-7.4,7.4-7.4h22.3V85c0,4.1,3.3,7.4,7.4,7.4S70,89.1,70,85V70.1h59.6V85c0,4.1,3.3,7.4,7.4,7.4
	c4.1,0,7.4-3.3,7.4-7.4V70.1h22.3c4.1,0,7.4,3.3,7.4,7.4V152z"/>
<g>
	<path class="st0" d="M148.7,105.5c0.2,27.1,23.8,36.1,24.1,36.3c-0.2,0.6-3.8,12.9-12.4,25.5c-7.5,10.9-15.2,21.8-27.4,22
		c-12,0.2-15.8-7.1-29.6-7.1s-18,6.9-29.4,7.4c-11.8,0.5-20.8-11.8-28.3-22.7c-15.4-22.2-27.1-62.9-11.3-90.3
		C42.2,62.8,56.3,54.2,71.5,54c11.6-0.2,22.5,7.8,29.6,7.8c7.1,0,20.4-9.6,34.3-8.2c5.9,0.2,22.2,2.3,32.8,17.8
		C167.2,71.9,148.5,82.8,148.7,105.5 M126.1,38.9c6.3-7.6,10.5-18.1,9.3-28.6c-9,0.3-20,6-26.4,13.6c-5.8,6.7-10.9,17.4-9.5,27.7
		C109.6,52.3,119.9,46.5,126.1,38.9"/>
</g>
</svg>
